<?xml version="1.0" encoding="UTF-8"?>
<!DOCTYPE svg PUBLIC "-//W3C//DTD SVG 1.1//EN" "http://www.w3.org/Graphics/SVG/1.1/DTD/svg11.dtd">
<svg version="1.1" xmlns="http://www.w3.org/2000/svg" xmlns:xlink="http://www.w3.org/1999/xlink" x="0" y="0" width="646" height="588" viewBox="0, 0, 646, 588">
  <g id="Layer_1">
    <path d="M262.925,324.754 C244.042,337.569 239.666,363.359 230.994,383.268 C205.225,442.428 197.219,448.325 186.265,514.552 C178.845,559.381 149.177,569.996 146.366,583.683 C144.497,592.772 182.96,574.137 192.404,517.076 C203.063,452.692 210.704,449.684 239.966,395.58 C251.371,374.491 261.208,357.873 265.252,334.043 C265.718,330.895 267.029,324.932 262.925,324.754" fill="#7B913C"/>
    <path d="M360.212,285.682 C378.16,299.774 404.06,296.111 425.663,298.323 C489.855,304.9 497.905,310.733 564.331,301.052 C609.294,294.499 628.422,319.54 642.318,318.058 C651.543,317.076 622.104,286.094 564.87,294.435 C500.293,303.843 495.105,297.475 434.668,286.035 C411.112,281.576 392.289,277.253 368.356,280.64 C365.217,281.154 359.135,281.715 360.212,285.682" fill="#7B913C"/>
    <path d="M301.726,291.32 C300.565,314.109 318.5,333.153 329.153,352.076 C360.811,408.306 360.688,418.247 406.914,466.92 C438.204,499.871 428.781,529.937 438.006,540.434 C444.131,547.403 452.457,505.483 412.63,463.544 C367.695,416.221 369.902,408.31 344.386,352.344 C334.44,330.528 327.113,312.659 310.541,295.064 C308.309,292.797 304.342,288.152 301.726,291.32" fill="#7B913C"/>
    <path d="M530.479,102.364 C521.91,123.515 497.616,133.206 479.971,145.866 C427.539,183.482 423.455,192.546 361.006,217.163 C318.731,233.827 314.582,265.063 301.788,270.686 C293.295,274.416 303.438,232.903 357.247,211.688 C417.956,187.753 419.294,179.649 466.049,139.679 C484.272,124.102 498.456,110.996 520.906,102.037 C523.888,100.923 529.442,98.387 530.479,102.364" fill="#7B913C"/>
    <path d="M287.94,280.052 C270.34,265.527 268.392,239.441 261.621,218.807 C241.499,157.496 234.081,150.877 229.365,83.916 C226.174,38.589 197.625,25.247 196.108,11.356 C195.1,2.132 231.649,24.284 235.717,81.978 C240.304,147.074 247.632,150.785 271.706,207.388 C281.088,229.45 289.329,246.916 291.127,271.02 C291.294,274.198 292.043,280.26 287.94,280.052" fill="#7B913C"/>
    <path d="M286.565,257.05 C247.483,286.519 177.863,205.275 118.598,200.672 C69.494,196.857 51.439,227.275 16.444,246.441 C2.605,254.019 -5.762,252.691 12.358,238.744 C98.516,172.435 126.165,182.535 219.325,229.654 C245.907,243.1 251.888,242.869 279.132,251.011 C282.181,251.921 288.141,253.254 286.565,257.05" fill="#7B913C"/>
    <path d="M318.396,322.181 C314.085,367.718 286.65,416.223 240.565,451.335 C194.48,486.445 140.433,500.017 95.385,492.088 C99.698,446.55 127.13,398.048 173.216,362.934 C219.302,327.824 273.35,314.25 318.396,322.181" fill="#8CA43D"/>
    <path d="M318.396,322.181 C314.085,367.718 286.65,416.223 240.565,451.335 C194.48,486.445 140.433,500.017 95.385,492.088 L318.396,322.181" fill="#7B913C"/>
    <path d="M595.129,423.697 C551.626,437.827 496.217,431.916 445.689,403.568 C395.16,375.223 361.237,331.011 350.622,286.52 C394.125,272.389 449.535,278.3 500.063,306.648 C550.592,334.996 584.516,379.207 595.129,423.697" fill="#8CA43D"/>
    <path d="M595.129,423.697 C551.626,437.827 496.217,431.916 445.689,403.568 C395.16,375.223 361.237,331.011 350.622,286.52 L595.129,423.697" fill="#7B913C"/>
    <path d="M256.962,545.419 C229.018,509.21 215.938,455.041 225.631,397.92 C235.322,340.801 265.537,293.977 303.863,269.011 C331.807,305.224 344.887,359.39 335.196,416.511 C325.503,473.633 295.288,520.454 256.962,545.419" fill="#8CA43D"/>
    <path d="M256.962,545.419 C229.018,509.21 215.938,455.041 225.631,397.92 C235.322,340.801 265.537,293.977 303.863,269.011 L256.962,545.419" fill="#7B913C"/>
    <path d="M297.549,274.533 C322.516,236.206 369.338,205.994 426.458,196.3 C483.58,186.611 537.748,199.691 573.959,227.636 C548.99,265.961 502.169,296.177 445.047,305.867 C387.928,315.557 333.758,302.478 297.549,274.533" fill="#8CA43D"/>
    <path d="M297.549,274.533 C322.516,236.206 369.338,205.994 426.458,196.3 C483.58,186.611 537.748,199.691 573.959,227.636 L297.549,274.533" fill="#7B913C"/>
    <path d="M145.537,127.896 C191.193,125.119 243.354,144.729 285.164,184.837 C326.975,224.944 348.734,276.244 347.859,321.975 C302.203,324.754 250.042,305.141 208.234,265.036 C166.423,224.927 144.662,173.628 145.537,127.896" fill="#8CA43D"/>
    <path d="M145.537,127.896 C191.193,125.119 243.354,144.729 285.164,184.837 C326.975,224.944 348.734,276.244 347.859,321.975 L145.537,127.896" fill="#7B913C"/>
    <path d="M22.118,288.955 C44.686,279.802 74.338,280.84 102.246,293.977 C130.156,307.115 149.851,329.308 157.174,352.533 C134.605,361.687 104.953,360.651 77.046,347.512 C49.136,334.376 29.442,312.182 22.118,288.955" fill="#9D3129"/>
    <path d="M22.118,288.955 C44.686,279.802 74.338,280.84 102.246,293.977 C130.156,307.115 149.851,329.308 157.174,352.533 L22.118,288.955" fill="#B9372B"/>
    <path d="M292.23,416.111 C269.662,425.265 240.01,424.228 212.102,411.09 C184.192,397.952 164.498,375.76 157.174,352.533 C179.742,343.378 209.392,344.416 237.302,357.554 C265.213,370.694 284.907,392.888 292.23,416.111" fill="#9D3129"/>
    <path d="M292.23,416.111 C269.662,425.265 240.01,424.228 212.102,411.09 C184.192,397.952 164.498,375.76 157.174,352.533 L292.23,416.111" fill="#B9372B"/>
    <path d="M34.586,437.707 C37.941,413.586 53.666,388.427 78.999,370.824 C104.331,353.223 133.397,347.263 157.174,352.533 C153.818,376.654 138.093,401.815 112.76,419.418 C87.428,437.017 58.362,442.975 34.586,437.707" fill="#9D3129"/>
    <path d="M34.586,437.707 C37.941,413.586 53.666,388.427 78.999,370.824 C104.331,353.223 133.397,347.263 157.174,352.533 L34.586,437.707" fill="#B9372B"/>
    <path d="M279.762,267.361 C276.405,291.482 260.682,316.643 235.348,334.243 C210.016,351.843 180.951,357.803 157.174,352.533 C160.531,328.411 176.254,303.252 201.586,285.651 C226.92,268.049 255.985,262.09 279.762,267.361" fill="#9D3129"/>
    <path d="M279.762,267.361 C276.405,291.482 260.682,316.643 235.348,334.243 C210.016,351.843 180.951,357.803 157.174,352.533 L279.762,267.361" fill="#B9372B"/>
    <path d="M169.644,501.283 C150.431,486.317 136.503,460.119 133.927,429.379 C131.35,398.64 140.723,370.491 157.174,352.533 C176.385,367.499 190.313,393.698 192.891,424.437 C195.467,455.178 186.095,483.329 169.644,501.283" fill="#9D3129"/>
    <path d="M169.644,501.283 C150.431,486.317 136.503,460.119 133.927,429.379 C131.35,398.64 140.723,370.491 157.174,352.533 L169.644,501.283" fill="#B9372B"/>
    <path d="M144.705,203.782 C163.917,218.748 177.844,244.948 180.421,275.686 C182.998,306.426 173.625,334.579 157.174,352.533 C137.961,337.568 124.035,311.369 121.458,280.628 C118.88,249.89 128.254,221.741 144.705,203.782" fill="#9D3129"/>
    <path d="M144.705,203.782 C163.917,218.748 177.844,244.948 180.421,275.686 C182.998,306.426 173.625,334.579 157.174,352.533 L144.705,203.782" fill="#B9372B"/>
    <path d="M232.202,365.265 C223.984,371.605 211.693,374.575 198.73,372.375 C185.769,370.175 175.143,363.317 169.478,354.622 C177.696,348.279 189.988,345.313 202.949,347.514 C215.912,349.711 226.536,356.567 232.202,365.265 z M82.147,339.804 C90.363,333.461 102.655,330.495 115.619,332.692 C128.579,334.892 139.204,341.749 144.869,350.446 C136.65,356.786 124.36,359.754 111.399,357.554 C98.436,355.355 87.813,348.498 82.147,339.804" fill="#FBEDE4"/>
    <path d="M205.712,293.924 C207.097,304.211 203.522,316.34 195.136,326.464 C186.75,336.59 175.497,342.362 165.134,342.922 C163.751,332.635 167.327,320.507 175.713,310.38 C184.098,300.256 195.349,294.483 205.712,293.924 z M108.634,411.142 C107.251,400.856 110.827,388.727 119.212,378.602 C127.597,368.476 138.849,362.704 149.214,362.147 C150.597,372.432 147.021,384.562 138.635,394.687 C130.25,404.811 119,410.585 108.634,411.142" fill="#FBEDE4"/>
    <path d="M130.687,281.194 C140.286,285.138 149.003,294.3 153.579,306.624 C158.153,318.948 157.528,331.579 152.83,340.832 C143.23,336.889 134.515,327.726 129.937,315.402 C125.362,303.078 125.987,290.447 130.687,281.194 z M183.661,423.876 C174.063,419.929 165.346,410.768 160.77,398.444 C156.195,386.117 156.82,373.489 161.517,364.233 C171.118,368.181 179.834,377.34 184.411,389.666 C188.986,401.99 188.361,414.62 183.661,423.876" fill="#FBEDE4"/>
    <path d="M130.536,348.015 C133.034,333.303 146.984,323.4 161.694,325.899 C176.405,328.392 186.306,342.343 183.81,357.054 C181.314,371.765 167.364,381.668 152.653,379.171 C137.943,376.673 128.041,362.724 130.536,348.015" fill="#F3B528"/>
    <path d="M307.949,289.448 C332.295,290.05 359.074,302.824 379.432,326.001 C399.788,349.177 409,377.381 406.457,401.6 C382.113,400.997 355.332,388.225 334.975,365.047 C314.618,341.872 305.405,313.667 307.949,289.448" fill="#9D3129"/>
    <path d="M307.949,289.448 C332.295,290.05 359.074,302.824 379.432,326.001 C399.788,349.177 409,377.381 406.457,401.6 L307.949,289.448" fill="#B9372B"/>
    <path d="M504.966,513.758 C480.618,513.152 453.839,500.379 433.484,477.202 C413.126,454.024 403.913,425.821 406.457,401.6 C430.804,402.204 457.583,414.977 477.94,438.155 C498.296,461.33 507.509,489.535 504.966,513.758" fill="#9D3129"/>
    <path d="M504.966,513.758 C480.618,513.152 453.839,500.379 433.484,477.202 C413.126,454.024 403.913,425.821 406.457,401.6 L504.966,513.758" fill="#B9372B"/>
    <path d="M260.074,430.833 C272.77,410.053 297.224,393.246 327.473,387.206 C357.723,381.164 386.754,387.289 406.457,401.6 C393.764,422.384 369.31,439.189 339.062,445.229 C308.811,451.271 279.779,445.147 260.074,430.833" fill="#9D3129"/>
    <path d="M260.074,430.833 C272.77,410.053 297.224,393.246 327.473,387.206 C357.723,381.164 386.754,387.289 406.457,401.6 L260.074,430.833" fill="#B9372B"/>
    <path d="M552.84,372.367 C540.144,393.151 515.692,409.956 485.441,415.996 C455.192,422.037 426.159,415.916 406.457,401.6 C419.151,380.816 443.604,364.015 473.855,357.973 C504.104,351.932 533.135,358.055 552.84,372.367" fill="#9D3129"/>
    <path d="M552.84,372.367 C540.144,393.151 515.692,409.956 485.441,415.996 C455.192,422.037 426.159,415.916 406.457,401.6 L552.84,372.367" fill="#B9372B"/>
    <path d="M358.582,542.989 C346.931,521.603 344.604,492.023 354.498,462.807 C364.393,433.588 384.211,411.509 406.457,401.6 C418.107,422.987 420.436,452.567 410.541,481.784 C400.648,511.001 380.83,533.081 358.582,542.989" fill="#9D3129"/>
    <path d="M358.582,542.989 C346.931,521.603 344.604,492.023 354.498,462.807 C364.393,433.588 384.211,411.509 406.457,401.6 L358.582,542.989" fill="#B9372B"/>
    <path d="M454.331,260.215 C465.983,281.6 468.31,311.179 458.416,340.394 C448.524,369.613 428.705,391.694 406.457,401.6 C394.806,380.217 392.48,350.638 402.372,321.419 C412.265,292.201 432.085,270.121 454.331,260.215" fill="#9D3129"/>
    <path d="M454.331,260.215 C465.983,281.6 468.31,311.179 458.416,340.394 C448.524,369.613 428.705,391.694 406.457,401.6 L454.331,260.215" fill="#B9372B"/>
    <path d="M470.185,443.19 C460.123,445.729 447.668,443.552 436.658,436.365 C425.648,429.181 418.638,418.657 416.91,408.423 C426.975,405.884 439.429,408.062 450.438,415.249 C461.449,422.432 468.458,432.959 470.185,443.19 z M342.729,360.01 C352.792,357.472 365.249,359.653 376.259,366.837 C387.268,374.02 394.277,384.546 396.005,394.782 C385.941,397.319 373.485,395.14 362.476,387.956 C351.466,380.769 344.455,370.246 342.729,360.01" fill="#FBEDE4"/>
    <path d="M474.34,367.205 C471.507,377.191 463.392,386.888 451.665,392.83 C439.937,398.77 427.318,399.582 417.59,395.96 C420.425,385.974 428.54,376.276 440.267,370.337 C451.994,364.391 464.612,363.586 474.34,367.205 z M338.574,435.998 C341.408,426.011 349.522,416.314 361.25,410.372 C372.977,404.43 385.598,403.623 395.324,407.243 C392.49,417.226 384.377,426.926 372.647,432.868 C360.922,438.808 348.303,439.618 338.574,435.998" fill="#FBEDE4"/>
    <path d="M410.611,325.616 C417.84,333.059 422.183,344.938 421.464,358.064 C420.747,371.191 415.137,382.524 407.139,389.138 C399.909,381.692 395.567,369.816 396.284,356.688 C397.002,343.563 402.611,332.227 410.611,325.616 z M402.305,477.589 C395.073,470.14 390.732,458.265 391.451,445.138 C392.168,432.01 397.776,420.678 405.776,414.064 C413.008,421.51 417.348,433.388 416.632,446.513 C415.913,459.641 410.302,470.974 402.305,477.589" fill="#FBEDE4"/>
    <path d="M383.832,386.837 C391.986,374.342 408.729,370.821 421.224,378.975 C433.719,387.131 437.238,403.873 429.084,416.368 C420.927,428.863 404.188,432.383 391.692,424.225 C379.197,416.071 375.678,399.333 383.832,386.837" fill="#F3B528"/>
    <path d="M323.405,2.163 C344.313,14.651 361.356,38.937 367.696,69.125 C374.038,99.314 368.2,128.405 354.085,148.248 C333.177,135.76 316.131,111.474 309.79,81.286 C303.453,51.098 309.289,22.007 323.405,2.163" fill="#9D3129"/>
    <path d="M323.405,2.163 C344.313,14.651 361.356,38.937 367.696,69.125 C374.038,99.314 368.2,128.405 354.085,148.248 L323.405,2.163" fill="#B9372B"/>
    <path d="M384.763,294.333 C363.855,281.845 346.811,257.562 340.47,227.372 C334.13,197.183 339.967,168.091 354.085,148.248 C374.991,160.738 392.037,185.021 398.377,215.212 C404.718,245.4 398.881,274.49 384.763,294.333" fill="#9D3129"/>
    <path d="M384.763,294.333 C363.855,281.845 346.811,257.562 340.47,227.372 C334.13,197.183 339.967,168.091 354.085,148.248 L384.763,294.333" fill="#B9372B"/>
    <path d="M212.232,101.773 C233.5,89.911 263.055,87.292 292.367,96.898 C321.683,106.502 343.957,126.1 354.085,148.248 C332.815,160.111 303.261,162.73 273.946,153.126 C244.632,143.522 222.357,123.921 212.232,101.773" fill="#9D3129"/>
    <path d="M212.232,101.773 C233.5,89.911 263.055,87.292 292.367,96.898 C321.683,106.502 343.957,126.1 354.085,148.248 L212.232,101.773" fill="#B9372B"/>
    <path d="M495.938,194.722 C474.669,206.584 445.114,209.205 415.801,199.6 C386.486,189.996 364.211,170.396 354.085,148.248 C375.353,136.388 404.908,133.767 434.222,143.371 C463.537,152.975 485.811,172.575 495.938,194.722" fill="#9D3129"/>
    <path d="M495.938,194.722 C474.669,206.584 445.114,209.205 415.801,199.6 C386.486,189.996 364.211,170.396 354.085,148.248 L495.938,194.722" fill="#B9372B"/>
    <path d="M242.909,247.86 C243.272,223.509 255.78,196.605 278.754,176.021 C301.729,155.436 329.839,145.944 354.085,148.248 C353.723,172.599 341.214,199.504 318.24,220.088 C295.264,240.674 267.152,250.163 242.909,247.86" fill="#9D3129"/>
    <path d="M242.909,247.86 C243.272,223.509 255.78,196.605 278.754,176.021 C301.729,155.436 329.839,145.944 354.085,148.248 L242.909,247.86" fill="#B9372B"/>
    <path d="M465.258,48.638 C464.896,72.989 452.389,99.891 429.414,120.478 C406.438,141.061 378.329,150.552 354.085,148.248 C354.446,123.899 366.955,96.993 389.929,76.41 C412.904,55.823 441.014,46.333 465.258,48.638" fill="#9D3129"/>
    <path d="M465.258,48.638 C464.896,72.989 452.389,99.891 429.414,120.478 C406.438,141.061 378.329,150.552 354.085,148.248 L465.258,48.638" fill="#B9372B"/>
    <path d="M389.149,215.788 C379.137,213.052 369.361,205.035 363.301,193.366 C357.243,181.698 356.312,169.088 359.835,159.325 C369.847,162.061 379.625,170.078 385.683,181.747 C391.741,193.415 392.673,206.025 389.149,215.788 z M319.018,80.709 C329.031,83.444 338.81,91.464 344.867,103.13 C350.923,114.799 351.856,127.41 348.331,137.171 C338.321,134.438 328.543,126.419 322.485,114.75 C316.428,103.081 315.493,90.472 319.018,80.709" fill="#FBEDE4"/>
    <path d="M430.106,151.652 C422.732,158.953 410.899,163.413 397.768,162.826 C384.633,162.238 373.244,156.741 366.552,148.807 C373.927,141.503 385.759,137.044 398.894,137.631 C412.027,138.219 423.414,143.718 430.106,151.652 z M278.061,144.846 C285.435,137.544 297.268,133.084 310.403,133.673 C323.535,134.261 334.923,139.758 341.615,147.691 C334.24,154.995 322.409,159.453 309.274,158.866 C296.142,158.278 284.754,152.779 278.061,144.846" fill="#FBEDE4"/>
    <path d="M395.042,84.112 C397.68,94.149 395.624,106.626 388.55,117.706 C381.473,128.786 371.019,135.901 360.801,137.729 C358.163,127.692 360.219,115.215 367.295,104.134 C374.371,93.054 384.824,85.94 395.042,84.112 z M313.126,212.386 C310.486,202.347 312.544,189.869 319.618,178.789 C326.695,167.711 337.149,160.597 347.365,158.768 C350.005,168.807 347.95,181.282 340.873,192.364 C333.797,203.442 323.342,210.557 313.126,212.386" fill="#FBEDE4"/>
    <path d="M341.635,124.272 C354.877,117.395 371.186,122.557 378.063,135.799 C384.938,149.043 379.774,165.351 366.533,172.226 C353.29,179.103 336.982,173.94 330.106,160.696 C323.229,147.454 328.393,131.146 341.635,124.272" fill="#F3B528"/>
    <path d="M257.188,125.165 C283.649,140.968 305.222,171.704 313.244,209.91 C321.269,248.115 313.883,284.931 296.017,310.047 C269.557,294.24 247.984,263.506 239.961,225.3 C231.938,187.094 239.324,150.277 257.188,125.165" fill="#DA3E2B"/>
    <path d="M257.188,125.165 C283.649,140.968 305.222,171.704 313.244,209.91 C321.269,248.115 313.883,284.931 296.017,310.047 L257.188,125.165" fill="#B9372B"/>
    <path d="M334.843,494.929 C308.381,479.123 286.81,448.389 278.786,410.182 C270.762,371.975 278.149,335.16 296.017,310.047 C322.477,325.851 344.049,356.586 352.071,394.793 C360.096,433 352.707,469.814 334.843,494.929" fill="#DA3E2B"/>
    <path d="M334.843,494.929 C308.381,479.123 286.81,448.389 278.786,410.182 C270.762,371.975 278.149,335.16 296.017,310.047 L334.843,494.929" fill="#B9372B"/>
    <path d="M116.49,251.23 C143.409,236.217 180.812,232.903 217.911,245.056 C255.01,257.211 283.199,282.015 296.017,310.047 C269.097,325.059 231.696,328.374 194.596,316.217 C157.498,304.064 129.306,279.259 116.49,251.23" fill="#DA3E2B"/>
    <path d="M116.49,251.23 C143.409,236.217 180.812,232.903 217.911,245.056 C255.01,257.211 283.199,282.015 296.017,310.047 L116.49,251.23" fill="#B9372B"/>
    <path d="M475.543,368.864 C448.623,383.875 411.222,387.191 374.123,375.034 C337.022,362.882 308.833,338.076 296.017,310.047 C322.935,295.034 360.336,291.719 397.435,303.874 C434.537,316.028 462.726,340.832 475.543,368.864" fill="#DA3E2B"/>
    <path d="M475.543,368.864 C448.623,383.875 411.222,387.191 374.123,375.034 C337.022,362.882 308.833,338.076 296.017,310.047 L475.543,368.864" fill="#B9372B"/>
    <path d="M155.317,436.112 C155.774,405.294 171.606,371.244 200.681,345.192 C229.757,319.14 265.334,307.131 296.017,310.047 C295.558,340.864 279.729,374.913 250.653,400.964 C221.575,427.017 186.001,439.027 155.317,436.112" fill="#DA3E2B"/>
    <path d="M155.317,436.112 C155.774,405.294 171.606,371.244 200.681,345.192 C229.757,319.14 265.334,307.131 296.017,310.047 L155.317,436.112" fill="#B9372B"/>
    <path d="M436.716,183.982 C436.258,214.797 420.426,248.848 391.352,274.899 C362.277,300.951 326.7,312.963 296.017,310.047 C296.473,279.227 312.305,245.179 341.38,219.127 C370.457,193.075 406.034,181.066 436.716,183.982" fill="#DA3E2B"/>
    <path d="M436.716,183.982 C436.258,214.797 420.426,248.848 391.352,274.899 C362.277,300.951 326.7,312.963 296.017,310.047 L436.716,183.982" fill="#B9372B"/>
    <path d="M340.395,395.522 C327.722,392.062 315.349,381.913 307.683,367.146 C300.014,352.38 298.835,336.42 303.295,324.064 C315.967,327.526 328.34,337.675 336.006,352.44 C343.675,367.205 344.855,383.168 340.395,395.522 z M251.638,224.568 C264.309,228.032 276.685,238.18 284.351,252.945 C292.017,267.712 293.197,283.672 288.737,296.026 C276.065,292.566 263.691,282.418 256.025,267.65 C248.359,252.886 247.178,236.926 251.638,224.568" fill="#FBEDE4"/>
    <path d="M392.229,314.352 C382.896,323.595 367.921,329.236 351.299,328.492 C334.679,327.749 320.266,320.793 311.797,310.751 C321.129,301.509 336.104,295.867 352.726,296.611 C369.347,297.354 383.759,304.31 392.229,314.352 z M199.804,305.74 C209.135,296.496 224.111,290.854 240.733,291.599 C257.355,292.342 271.768,299.298 280.237,309.34 C270.903,318.583 255.927,324.225 239.306,323.479 C222.686,322.738 208.272,315.78 199.804,305.74" fill="#FBEDE4"/>
    <path d="M347.852,228.875 C351.189,241.579 348.588,257.369 339.635,271.392 C330.68,285.416 317.448,294.418 304.518,296.733 C301.179,284.028 303.781,268.238 312.735,254.216 C321.69,240.193 334.922,231.192 347.852,228.875 z M244.18,391.216 C240.843,378.512 243.443,362.723 252.399,348.698 C261.354,334.677 274.585,325.673 287.514,323.36 C290.852,336.063 288.251,351.853 279.297,365.876 C270.342,379.899 257.109,388.902 244.18,391.216" fill="#FBEDE4"/>
    <path d="M280.261,279.7 C297.019,270.999 317.662,277.533 326.361,294.29 C335.064,311.051 328.531,331.69 311.772,340.391 C295.012,349.093 274.371,342.561 265.669,325.801 C256.968,309.04 263.501,288.401 280.261,279.7" fill="#F8C823"/>
    <path d="M456.348,288.545 C450.21,286.869 444.219,281.954 440.506,274.804 C436.793,267.652 436.221,259.924 438.382,253.941 C444.519,255.619 450.51,260.53 454.222,267.682 C457.934,274.834 458.507,282.56 456.348,288.545 z M413.364,205.759 C419.502,207.436 425.493,212.349 429.206,219.5 C432.919,226.652 433.491,234.38 431.333,240.363 C425.196,238.688 419.202,233.772 415.49,226.622 C411.776,219.473 411.206,211.742 413.364,205.759" fill="#FBEDE4"/>
    <path d="M481.449,249.237 C476.93,253.714 469.677,256.447 461.629,256.085 C453.578,255.725 446.599,252.356 442.498,247.494 C447.017,243.016 454.27,240.285 462.317,240.648 C470.367,241.005 477.347,244.374 481.449,249.237 z M388.265,245.067 C392.782,240.59 400.035,237.86 408.086,238.219 C416.134,238.579 423.113,241.947 427.215,246.81 C422.693,251.286 415.442,254.019 407.394,253.659 C399.345,253.297 392.365,249.93 388.265,245.067" fill="#FBEDE4"/>
    <path d="M459.957,207.844 C461.575,213.997 460.315,221.644 455.98,228.434 C451.642,235.225 445.235,239.585 438.972,240.704 C437.356,234.553 438.616,226.907 442.953,220.116 C447.289,213.324 453.696,208.966 459.957,207.844 z M409.755,286.46 C408.137,280.308 409.397,272.661 413.734,265.87 C418.07,259.08 424.478,254.72 430.74,253.599 C432.355,259.751 431.096,267.398 426.759,274.189 C422.423,280.978 416.016,285.34 409.755,286.46" fill="#FBEDE4"/>
    <path d="M427.227,232.458 C435.344,228.242 445.338,231.407 449.551,239.523 C453.764,247.639 450.602,257.633 442.485,261.849 C434.371,266.061 424.374,262.899 420.161,254.782 C415.948,246.665 419.109,236.671 427.227,232.458" fill="#F8C823"/>
    <path d="M531.139,404.211 C525.002,402.535 519.011,397.619 515.297,390.469 C511.585,383.318 511.012,375.589 513.173,369.605 C519.307,371.282 525.301,376.196 529.014,383.349 C532.727,390.499 533.299,398.226 531.139,404.211 z M488.156,321.424 C494.293,323.099 500.286,328.015 503.998,335.166 C507.71,342.316 508.283,350.046 506.122,356.029 C499.986,354.352 493.993,349.438 490.281,342.286 C486.569,335.136 485.996,327.408 488.156,321.424" fill="#FBEDE4"/>
    <path d="M556.239,364.903 C551.721,369.38 544.47,372.111 536.42,371.75 C528.37,371.391 521.391,368.021 517.29,363.161 C521.81,358.682 529.061,355.95 537.11,356.311 C545.16,356.671 552.139,360.04 556.239,364.903 z M463.055,360.731 C467.574,356.255 474.827,353.523 482.877,353.884 C490.925,354.243 497.904,357.612 502.007,362.474 C497.486,366.952 490.234,369.684 482.187,369.323 C474.136,368.964 467.156,365.594 463.055,360.731" fill="#FBEDE4"/>
    <path d="M534.75,323.51 C536.367,329.663 535.107,337.307 530.769,344.098 C526.433,350.89 520.027,355.248 513.765,356.37 C512.147,350.218 513.408,342.573 517.745,335.779 C522.08,328.99 528.488,324.629 534.75,323.51 z M484.546,402.125 C482.928,395.972 484.188,388.327 488.524,381.537 C492.861,374.745 499.271,370.386 505.531,369.263 C507.146,375.414 505.887,383.061 501.552,389.853 C497.215,396.644 490.807,401.006 484.546,402.125" fill="#FBEDE4"/>
    <path d="M502.018,348.121 C510.135,343.908 520.129,347.069 524.343,355.188 C528.556,363.304 525.394,373.298 517.276,377.514 C509.16,381.726 499.167,378.563 494.952,370.445 C490.739,362.331 493.901,352.336 502.018,348.121" fill="#F8C823"/>
    <path d="M298.101,501.638 C291.963,499.963 285.972,495.049 282.26,487.899 C278.546,480.745 277.977,473.018 280.135,467.037 C286.271,468.711 292.263,473.626 295.977,480.775 C299.69,487.927 300.262,495.656 298.101,501.638 z M255.121,418.854 C261.256,420.528 267.248,425.442 270.961,432.595 C274.672,439.745 275.245,447.473 273.086,453.457 C266.95,451.781 260.957,446.866 257.246,439.716 C253.531,432.564 252.958,424.836 255.121,418.854" fill="#FBEDE4"/>
    <path d="M323.204,462.331 C318.683,466.807 311.431,469.539 303.382,469.18 C295.332,468.818 288.355,465.45 284.253,460.588 C288.772,456.11 296.025,453.381 304.072,453.741 C312.122,454.099 319.102,457.467 323.204,462.331 z M230.018,458.161 C234.537,453.685 241.789,450.951 249.839,451.311 C257.888,451.673 264.866,455.041 268.968,459.905 C264.448,464.38 257.197,467.111 249.148,466.753 C241.099,466.391 234.118,463.023 230.018,458.161" fill="#FBEDE4"/>
    <path d="M301.713,420.936 C303.329,427.09 302.069,434.737 297.732,441.529 C293.395,448.316 286.989,452.678 280.727,453.798 C279.109,447.647 280.371,440 284.708,433.211 C289.045,426.419 295.451,422.059 301.713,420.936 z M251.508,499.554 C249.893,493.403 251.152,485.756 255.488,478.965 C259.826,472.173 266.232,467.812 272.493,466.694 C274.112,472.846 272.849,480.493 268.513,487.283 C264.178,494.074 257.769,498.432 251.508,499.554" fill="#FBEDE4"/>
    <path d="M268.98,445.552 C277.097,441.336 287.092,444.501 291.304,452.616 C295.52,460.731 292.355,470.728 284.241,474.941 C276.125,479.155 266.129,475.991 261.914,467.876 C257.701,459.76 260.866,449.764 268.98,445.552" fill="#F8C823"/>
    <path d="M234.421,276.342 C228.284,274.667 222.291,269.753 218.579,262.602 C214.864,255.45 214.294,247.722 216.455,241.739 C222.59,243.417 228.583,248.328 232.295,255.479 C236.007,262.632 236.579,270.359 234.421,276.342 z M191.438,193.557 C197.575,195.233 203.566,200.146 207.281,207.298 C210.992,214.45 211.565,222.177 209.407,228.161 C203.27,226.486 197.275,221.571 193.563,214.42 C189.85,207.269 189.278,199.54 191.438,193.557" fill="#FBEDE4"/>
    <path d="M259.521,237.035 C255.002,241.512 247.75,244.245 239.702,243.883 C231.652,243.523 224.672,240.154 220.572,235.293 C225.09,230.815 232.343,228.083 240.391,228.443 C248.441,228.803 255.42,232.173 259.521,237.035 z M166.336,232.864 C170.856,228.389 178.109,225.657 186.158,226.015 C194.207,226.377 201.186,229.745 205.289,234.609 C200.767,239.084 193.516,241.817 185.465,241.457 C177.419,241.096 170.438,237.728 166.336,232.864" fill="#FBEDE4"/>
    <path d="M238.03,195.642 C239.649,201.795 238.389,209.439 234.051,216.233 C229.715,223.022 223.308,227.384 217.045,228.502 C215.43,222.349 216.688,214.705 221.025,207.914 C225.364,201.122 231.77,196.764 238.03,195.642 z M187.828,274.258 C186.211,268.107 187.47,260.459 191.805,253.669 C196.144,246.878 202.55,242.518 208.811,241.397 C210.431,247.549 209.169,255.197 204.832,261.987 C200.497,268.776 194.089,273.138 187.828,274.258" fill="#FBEDE4"/>
    <path d="M205.3,220.256 C213.417,216.04 223.411,219.205 227.625,227.319 C231.839,235.437 228.675,245.431 220.559,249.646 C212.442,253.859 202.448,250.697 198.233,242.58 C194.021,234.464 197.183,224.468 205.3,220.256" fill="#F8C823"/>
  </g>
</svg>
