<?xml version="1.0" encoding="UTF-8" standalone="no"?>
<!-- Created with Inkscape (http://www.inkscape.org/) -->

<svg
   version="1.1"
   id="svg1"
   width="880"
   height="880"
   viewBox="0 0 880 880"
   sodipodi:docname="flower-in-pot-2.svg"
   inkscape:version="1.3.2 (091e20e, 2023-11-25, custom)"
   xmlns:inkscape="http://www.inkscape.org/namespaces/inkscape"
   xmlns:sodipodi="http://sodipodi.sourceforge.net/DTD/sodipodi-0.dtd"
   xmlns="http://www.w3.org/2000/svg"
   xmlns:svg="http://www.w3.org/2000/svg">
  <defs
     id="defs1">
    <clipPath
       clipPathUnits="userSpaceOnUse"
       id="clipPath3">
      <path
         d="M 0,660 H 660 V 0 H 0 Z"
         transform="translate(-335.44141,-101.2354)"
         id="path3" />
    </clipPath>
    <clipPath
       clipPathUnits="userSpaceOnUse"
       id="clipPath5">
      <path
         d="M 0,660 H 660 V 0 H 0 Z"
         transform="translate(-304.25441,-116.0098)"
         id="path5" />
    </clipPath>
    <clipPath
       clipPathUnits="userSpaceOnUse"
       id="clipPath7">
      <path
         d="M 0,660 H 660 V 0 H 0 Z"
         transform="translate(-304.25441,-187.8535)"
         id="path7" />
    </clipPath>
    <clipPath
       clipPathUnits="userSpaceOnUse"
       id="clipPath9">
      <path
         d="M 0,660 H 660 V 0 H 0 Z"
         transform="translate(-304.25441,-117.2871)"
         id="path9" />
    </clipPath>
    <clipPath
       clipPathUnits="userSpaceOnUse"
       id="clipPath11">
      <path
         d="M 0,660 H 660 V 0 H 0 Z"
         transform="translate(-304.25441,-166.0732)"
         id="path11" />
    </clipPath>
    <clipPath
       clipPathUnits="userSpaceOnUse"
       id="clipPath13">
      <path
         d="M 0,660 H 660 V 0 H 0 Z"
         transform="translate(-449.91991,-321.08011)"
         id="path13" />
    </clipPath>
    <clipPath
       clipPathUnits="userSpaceOnUse"
       id="clipPath15">
      <path
         d="M 0,660 H 660 V 0 H 0 Z"
         transform="translate(-449.91991,-321.08011)"
         id="path15" />
    </clipPath>
    <clipPath
       clipPathUnits="userSpaceOnUse"
       id="clipPath17">
      <path
         d="M 0,660 H 660 V 0 H 0 Z"
         transform="translate(-304.25441,-340.21481)"
         id="path17" />
    </clipPath>
    <clipPath
       clipPathUnits="userSpaceOnUse"
       id="clipPath19">
      <path
         d="M 0,660 H 660 V 0 H 0 Z"
         transform="translate(-304.25441,-285.15921)"
         id="path19" />
    </clipPath>
    <clipPath
       clipPathUnits="userSpaceOnUse"
       id="clipPath21">
      <path
         d="M 0,660 H 660 V 0 H 0 Z"
         transform="translate(-304.25441,-300.60741)"
         id="path21" />
    </clipPath>
    <clipPath
       clipPathUnits="userSpaceOnUse"
       id="clipPath23">
      <path
         d="M 0,660 H 660 V 0 H 0 Z"
         transform="translate(-304.25441,-304.29391)"
         id="path23" />
    </clipPath>
    <clipPath
       clipPathUnits="userSpaceOnUse"
       id="clipPath25">
      <path
         d="M 0,660 H 660 V 0 H 0 Z"
         transform="translate(-212.4517,-172.252)"
         id="path25" />
    </clipPath>
    <clipPath
       clipPathUnits="userSpaceOnUse"
       id="clipPath27">
      <path
         d="M 0,660 H 660 V 0 H 0 Z"
         transform="translate(-300.23731,-375.52341)"
         id="path27" />
    </clipPath>
    <clipPath
       clipPathUnits="userSpaceOnUse"
       id="clipPath29">
      <path
         d="M 0,660 H 660 V 0 H 0 Z"
         transform="translate(-300.23731,-375.52341)"
         id="path29" />
    </clipPath>
    <clipPath
       clipPathUnits="userSpaceOnUse"
       id="clipPath31">
      <path
         d="M 0,660 H 660 V 0 H 0 Z"
         transform="translate(-195.50631,-503.47072)"
         id="path31" />
    </clipPath>
    <clipPath
       clipPathUnits="userSpaceOnUse"
       id="clipPath33">
      <path
         d="M 0,660 H 660 V 0 H 0 Z"
         transform="translate(-200.54691,-462.09381)"
         id="path33" />
    </clipPath>
    <clipPath
       clipPathUnits="userSpaceOnUse"
       id="clipPath35">
      <path
         d="M 0,660 H 660 V 0 H 0 Z"
         transform="translate(-383.57621,-541.23931)"
         id="path35" />
    </clipPath>
    <clipPath
       clipPathUnits="userSpaceOnUse"
       id="clipPath37">
      <path
         d="M 0,660 H 660 V 0 H 0 Z"
         transform="translate(-380.31841,-514.49272)"
         id="path37" />
    </clipPath>
  </defs>
  <sodipodi:namedview
     id="namedview1"
     pagecolor="#ffffff"
     bordercolor="#000000"
     borderopacity="0.25"
     inkscape:showpageshadow="2"
     inkscape:pageopacity="0.0"
     inkscape:pagecheckerboard="0"
     inkscape:deskcolor="#d1d1d1"
     inkscape:zoom="0.67272727"
     inkscape:cx="439.25676"
     inkscape:cy="440"
     inkscape:window-width="1440"
     inkscape:window-height="830"
     inkscape:window-x="-6"
     inkscape:window-y="-6"
     inkscape:window-maximized="1"
     inkscape:current-layer="g1">
    <inkscape:page
       x="0"
       y="0"
       inkscape:label="1"
       id="page1"
       width="880"
       height="880"
       margin="134.98 158.65067 60.506668 173.16267"
       bleed="0" />
  </sodipodi:namedview>
  <g
     id="g1"
     inkscape:groupmode="layer"
     inkscape:label="1">
    <g
       id="group-MC0">
      <path
         id="path2"
         d="m 0,0 c 113.225,0 205.57,27.146 205.57,60.431 0,33.283 -92.345,60.428 -205.57,60.428 -113.223,0 -205.569,-27.145 -205.569,-60.428 C -205.569,27.146 -113.223,0 0,0"
         style="fill:#e8e8e7;fill-opacity:1;fill-rule:evenodd;stroke:none"
         transform="matrix(1.3333333,0,0,-1.3333333,447.2552,745.01947)"
         clip-path="url(#clipPath3)" />
      <path
         id="path4"
         d="M 0,0 C 85.271,0 154.818,16.136 154.818,35.921 154.818,55.706 85.271,71.844 0,71.844 -85.27,71.844 -154.816,55.706 -154.816,35.921 -154.816,16.136 -85.27,0 0,0"
         style="fill:#fab40a;fill-opacity:1;fill-rule:evenodd;stroke:none"
         transform="matrix(1.3333333,0,0,-1.3333333,405.67253,725.32027)"
         clip-path="url(#clipPath5)" />
      <path
         id="path6"
         d="m 0,0 c 75.726,0 138.746,-12.618 152.167,-29.284 -18.38,-15.078 -56.56,-27.748 -100.691,-31.73 -62.055,-5.601 -112.36,8.098 -112.36,30.596 0,10.387 10.731,20.833 28.383,29.622 C -22.02,-0.276 -11.149,0 0,0"
         style="fill:#e09a14;fill-opacity:1;fill-rule:evenodd;stroke:none"
         transform="matrix(1.3333333,0,0,-1.3333333,405.67253,629.52867)"
         clip-path="url(#clipPath7)" />
      <path
         id="path8"
         d="M 0,0 C 57.906,0 105.132,10.957 105.132,24.394 105.132,37.828 57.906,48.787 0,48.787 -57.905,48.787 -105.134,37.828 -105.134,24.394 -105.134,10.957 -57.905,0 0,0"
         style="fill:#fbca07;fill-opacity:1;fill-rule:evenodd;stroke:none"
         transform="matrix(1.3333333,0,0,-1.3333333,405.67253,723.6172)"
         clip-path="url(#clipPath9)" />
      <path
         id="path10"
         d="m 0,0 c 58.064,0 105.132,-10.922 105.132,-24.395 0,-2.049 -1.095,-4.039 -3.146,-5.941 -15.186,-4.145 -32.342,-7.259 -50.51,-8.897 -62.055,-5.602 -112.36,8.097 -112.36,30.595 0,1.411 0.196,2.821 0.583,4.228 C -43.229,-1.632 -22.437,0 0,0"
         style="fill:#f2a50f;fill-opacity:1;fill-rule:evenodd;stroke:none"
         transform="matrix(1.3333333,0,0,-1.3333333,405.67253,658.56907)"
         clip-path="url(#clipPath11)" />
      <path
         id="path12"
         d="m 0,0 c 0.002,-0.31 0.01,-0.617 0.01,-0.926 0,-67.948 -27.498,-124.292 -57.168,-166.704 -26.908,-38.468 -151.394,-37.28 -177.988,1.08 -29.296,42.265 -56.196,98.31 -56.196,165.624 0,0.309 0.007,0.616 0.009,0.926 z"
         style="fill:#f2a50f;fill-opacity:1;fill-rule:evenodd;stroke:none"
         transform="matrix(1.3333333,0,0,-1.3333333,599.8932,451.8932)"
         clip-path="url(#clipPath13)" />
      <path
         id="path14"
         d="m 0,0 c 0.002,-0.31 0.01,-0.617 0.01,-0.926 0,-67.948 -27.498,-124.292 -57.168,-166.704 -21.338,-30.503 -104.022,-36.067 -150.607,-17.939 44.105,-4.446 83.304,5.598 115.062,27.635 29.416,20.412 33.889,82.804 -15.645,84.172 -66.91,1.846 -107.17,7.419 -168.496,37.888 L -274.836,0 Z"
         style="fill:#df8c16;fill-opacity:1;fill-rule:evenodd;stroke:none"
         transform="matrix(1.3333333,0,0,-1.3333333,599.8932,451.8932)"
         clip-path="url(#clipPath15)" />
      <path
         id="path16"
         d="m 0,0 c 59.367,0 110.919,-7.754 136.896,-19.135 h 17.92 v -16.787 c 0,-19.839 -69.313,-35.922 -154.816,-35.922 -85.503,0 -154.816,16.083 -154.816,35.922 v 16.787 h 17.921 C -110.919,-7.754 -59.367,0 0,0"
         style="fill:#bf781c;fill-opacity:1;fill-rule:evenodd;stroke:none"
         transform="matrix(1.3333333,0,0,-1.3333333,405.67253,426.38027)"
         clip-path="url(#clipPath17)" />
      <path
         id="path18"
         d="M 0,0 C 85.271,0 154.818,16.135 154.818,35.921 154.818,55.706 85.271,71.843 0,71.843 -85.27,71.843 -154.816,55.706 -154.816,35.921 -154.816,16.135 -85.27,0 0,0"
         style="fill:#df8c16;fill-opacity:1;fill-rule:evenodd;stroke:none"
         transform="matrix(1.3333333,0,0,-1.3333333,405.67253,499.78773)"
         clip-path="url(#clipPath19)" />
      <path
         id="path20"
         d="M 0,0 C 74.13,0 134.589,11.277 134.589,25.104 134.589,38.932 74.13,50.209 0,50.209 -74.13,50.209 -134.589,38.932 -134.589,25.104 -134.589,11.277 -74.13,0 0,0"
         style="fill:#f2a50f;fill-opacity:1;fill-rule:evenodd;stroke:none"
         transform="matrix(1.3333333,0,0,-1.3333333,405.67253,479.19013)"
         clip-path="url(#clipPath21)" />
      <path
         id="path22"
         d="M 0,0 C 62.226,0 112.978,7.124 112.978,15.86 112.978,24.597 62.226,31.72 0,31.72 -62.226,31.72 -112.978,24.597 -112.978,15.86 -112.978,7.124 -62.226,0 0,0"
         style="fill:#714e1b;fill-opacity:1;fill-rule:evenodd;stroke:none"
         transform="matrix(1.3333333,0,0,-1.3333333,405.67253,474.2748)"
         clip-path="url(#clipPath23)" />
      <path
         id="path24"
         d="M 0,0 C -15.628,23.278 -52.451,94.018 8.149,79.864 28.793,75.045 43.195,68.139 65.733,64.024 93.083,59.029 136.076,48.254 116.481,10.745 99.847,-21.103 27.991,-39.132 1.835,-2.57 Z"
         style="fill:#fabc10;fill-opacity:1;fill-rule:evenodd;stroke:none"
         transform="matrix(1.3333333,0,0,-1.3333333,283.26893,650.33067)"
         clip-path="url(#clipPath25)" />
      <path
         id="path26"
         d="m 0,0 c 2.364,-9.648 20.44,-55.956 11.118,-62.11 -5.174,-3.418 -20.841,-5.083 -21.056,3.391 -0.224,8.891 1.588,16.097 0.738,27.12 -5.62,61.89 -12.394,60.682 16.286,120.973 23.255,48.891 -10.528,42.795 -30.744,65.612 -36.943,41.699 11.82,100.58 46.41,79.799 25.401,-15.262 7.104,-51.892 -10.867,-39.997 -4.398,2.911 15.807,-8.098 19.425,13.055 4.986,29.153 -40.032,40.285 -58.073,1.609 -14.086,-30.197 3.042,-52.223 29.211,-64.658 27.994,-13.302 24.621,-36.976 12,-62.323 C -2.887,50.4 -7.873,35.048 0,0"
         style="fill:#87b027;fill-opacity:1;fill-rule:evenodd;stroke:none"
         transform="matrix(1.3333333,0,0,-1.3333333,400.3164,379.30213)"
         clip-path="url(#clipPath27)" />
      <path
         id="path28"
         d="M 0,0 C 2.364,-9.648 20.44,-55.956 11.118,-62.11 7.812,-64.293 0.229,-65.762 -4.879,-64.328 l -2.369,1.001 -0.004,0.002 c 6.502,-1.567 13.715,1.201 12.886,6.454 -4.239,29.21 -15.543,61.26 -12.993,90.665 2.689,30.996 26.191,49.016 28.326,80.056 0.724,10.508 -7.915,24.245 -21.877,32.618 v 0.002 c 1.103,-0.576 2.221,-1.137 3.358,-1.676 27.994,-13.302 24.621,-36.976 12,-62.323 C -2.887,50.4 -7.873,35.048 0,0"
         style="fill:#769a2a;fill-opacity:1;fill-rule:evenodd;stroke:none"
         transform="matrix(1.3333333,0,0,-1.3333333,400.3164,379.30213)"
         clip-path="url(#clipPath29)" />
      <path
         id="path30"
         d="M 0,0 C -5.355,-43.109 35.006,-134.402 95.138,-84.842 101.315,-26.496 32.535,-36.106 0,0"
         style="fill:#87b027;fill-opacity:1;fill-rule:evenodd;stroke:none"
         transform="matrix(1.3333333,0,0,-1.3333333,260.67507,208.70573)"
         clip-path="url(#clipPath31)" />
      <path
         id="path32"
         d="M 0,0 C 12.645,-40.531 46.073,-79.751 90.097,-43.465 92.944,-16.571 79.861,-4.119 61.75,5.03 73.531,-4.818 82.218,-17.766 85.773,-35.846 58.016,-26.612 35.004,-11.239 16.58,10.076 34.888,-16.325 57.236,-32.782 82.684,-41.611 44.172,-56.086 19.829,-33.884 0,0"
         style="fill:#769a2a;fill-opacity:1;fill-rule:evenodd;stroke:none"
         transform="matrix(1.3333333,0,0,-1.3333333,267.39587,263.87493)"
         clip-path="url(#clipPath33)" />
      <path
         id="path34"
         d="M 0,0 C 3.461,-27.866 -22.629,-86.882 -61.5,-54.845 -65.495,-17.128 -21.033,-23.34 0,0"
         style="fill:#87b027;fill-opacity:1;fill-rule:evenodd;stroke:none"
         transform="matrix(1.3333333,0,0,-1.3333333,511.43493,158.3476)"
         clip-path="url(#clipPath35)" />
      <path
         id="path36"
         d="m 0,0 c -8.176,-26.201 -29.783,-51.554 -58.243,-28.098 -1.84,17.385 6.617,25.434 18.327,31.349 -7.619,-6.367 -13.235,-14.735 -15.53,-26.424 17.942,5.969 32.819,15.907 44.727,29.686 C -22.553,-10.555 -37.002,-21.192 -53.452,-26.9 -28.555,-36.256 -12.82,-21.903 0,0"
         style="fill:#769a2a;fill-opacity:1;fill-rule:evenodd;stroke:none"
         transform="matrix(1.3333333,0,0,-1.3333333,507.0912,194.00973)"
         clip-path="url(#clipPath37)" />
    </g>
  </g>
</svg>
