<svg xmlns="http://www.w3.org/2000/svg" viewBox="0 23.25 471.04998779296875 37.099998474121094" data-asc="1.2"><defs/><g><g><g transform="translate(0, 0)"><path d="M10.75 60.20Q9.20 60.20 8.03 59.40Q6.85 58.60 6.90 57Q7 54.20 7.32 50.80Q7.65 47.40 8.10 43.88Q8.55 40.35 9.03 37.10Q9.50 33.85 9.90 31.30Q9 31.20 8.15 31.15Q7.30 31.10 6.60 31.10Q4.50 31.10 2.83 31.50Q1.15 31.90 0 32.90Q0 29.75 0.53 27.77Q1.05 25.80 2.47 24.90Q3.90 24 6.65 24Q8.65 24 11.13 24.32Q13.60 24.65 16.15 25Q18.70 25.35 20.90 25.35Q22.70 25.35 24.13 25Q25.55 24.65 26.30 23.75Q27.40 24.10 28.00 25.27Q28.60 26.45 28.60 27.85Q28.60 29.10 28.05 30.27Q27.50 31.45 26.30 32.22Q25.10 33 23.05 33Q22.10 33 20.73 32.83Q19.35 32.65 17.80 32.45Q17.25 35.45 16.68 39.63Q16.10 43.80 15.72 48.60Q15.35 53.40 15.25 58.35Q14.35 59.30 13.13 59.75Q11.90 60.20 10.75 60.20ZM34.15 60.20Q32 60.20 30.70 58.75Q29.40 57.30 29.40 54.80Q29.40 53.45 29.75 51.27Q30.10 49.10 30.63 46.48Q31.15 43.85 31.65 41.13Q32.15 38.40 32.50 35.85Q32.85 33.30 32.85 31.35Q32.85 28.90 32.20 27.80L32.20 27.50Q33.30 26.25 34.60 25.65Q35.90 25.05 37.15 25.05Q39.05 25.05 40.40 26.40Q41.75 27.75 41.75 30.45Q41.75 31.90 41.35 34Q40.95 36.10 40.40 38.40Q39.85 40.70 39.30 42.70Q40.25 40.85 41.83 39.02Q43.40 37.20 45.43 36Q47.45 34.80 49.65 34.80Q52.15 34.80 53.03 36.35Q53.90 37.90 53.90 40.20Q53.90 42.30 53.45 44.67Q53 47.05 52.55 49.23Q52.10 51.40 52.10 52.85Q52.10 54.95 53.35 54.95Q53.90 54.95 54.33 54.63Q54.75 54.30 54.95 53.90L55.30 54.15Q55.30 56.10 54.35 57.45Q53.40 58.80 51.93 59.50Q50.45 60.20 48.90 60.20Q46.85 60.20 45.20 58.83Q43.55 57.45 43.55 54.35Q43.55 52.60 44.03 50.55Q44.50 48.50 44.95 46.58Q45.40 44.65 45.40 43.35Q45.40 41.65 44.20 41.65Q43.10 41.65 41.80 42.75Q40.50 43.85 39.53 45.50Q38.55 47.15 38.25 48.75Q38.15 49.15 38.15 49.70Q38.15 50.95 38.53 52.10Q38.90 53.25 38.90 54.80Q38.90 57.10 37.70 58.65Q36.50 60.20 34.15 60.20ZM68.70 60.35Q65.05 60.35 62.65 58.88Q60.25 57.40 59.05 54.98Q57.85 52.55 57.85 49.75Q57.85 47.10 58.88 44.42Q59.90 41.75 61.88 39.55Q63.85 37.35 66.68 36Q69.50 34.65 73.05 34.65Q77.45 34.65 79.48 36.63Q81.50 38.60 81.50 41.40Q81.50 43.80 80.23 45.83Q78.95 47.85 76.85 49.08Q74.75 50.30 72.25 50.30Q70.95 50.30 69.60 49.90Q68.25 49.50 66.95 48.65Q67.20 51.75 68.75 53.15Q70.30 54.55 72.45 54.55Q73.95 54.55 75.45 53.98Q76.95 53.40 78.23 52.48Q79.50 51.55 80.20 50.50L80.55 50.75Q80.55 53.35 79.48 55.17Q78.40 57 76.65 58.15Q74.90 59.30 72.83 59.83Q70.75 60.35 68.70 60.35M69.85 46.85Q71.45 46.85 72.45 45.92Q73.45 45 73.95 43.75Q74.45 42.50 74.45 41.55Q74.45 40.40 73.80 39.63Q73.15 38.85 72 38.85Q71.10 38.85 70.03 39.50Q68.95 40.15 68.10 41.72Q67.25 43.30 67 46.10Q68.60 46.85 69.85 46.85ZM98.60 60.20Q96.80 60.20 95.35 58.70Q93.90 57.20 93.90 53.75Q93.90 50.95 94.55 48.25Q95.20 45.55 96.03 42.77Q96.85 40 97.42 37.02Q98 34.05 97.80 30.75Q96.45 30.95 95.15 31.45Q93.85 31.95 92.60 32.90Q92.60 29.75 93.15 27.77Q93.70 25.80 95.30 24.90Q96.90 24 100.05 24Q101.75 24 103.85 24.25Q105.95 24.50 108.17 24.75Q110.40 25 112.40 25Q114.35 25 115.90 24.63Q117.45 24.25 118.30 23.25Q119.30 23.90 119.83 25.02Q120.35 26.15 120.35 27.45Q120.35 28.80 119.72 30.07Q119.10 31.35 117.80 32.17Q116.50 33 114.40 33Q112.20 33 109.60 32.30Q107 31.60 104.25 31.10Q104.50 32.20 104.63 33.30Q104.75 34.40 104.75 35.55Q104.75 36.80 104.65 38.02Q104.55 39.25 104.35 40.55Q105.40 40 106.90 39.55Q108.40 39.10 109.97 38.80Q111.55 38.50 112.80 38.50Q113.60 38.50 114.20 38.65Q114.70 39.70 114.70 41.20Q114.70 43.60 113.50 46.10L113.15 46.25Q111.30 45.25 108.88 44.70Q106.45 44.15 103.80 43.95Q103.30 46.80 102.85 49.75Q102.40 52.70 102.40 55.80Q102.40 56.45 102.42 57.15Q102.45 57.85 102.50 58.55Q100.85 60.20 98.60 60.20ZM126.10 60.20Q124.75 60.20 123.48 59.52Q122.20 58.85 121.40 57.35Q120.60 55.85 120.60 53.50Q120.60 51.40 121.18 48.58Q121.75 45.75 122.48 42.70Q123.20 39.65 123.75 36.75Q124.30 33.85 124.25 31.60Q124.25 29.45 123.75 28.55L123.70 28.40Q124.25 26.80 125.65 25.90Q127.05 25 128.60 25Q130.35 25 131.72 26.32Q133.10 27.65 133.10 30.75Q133.10 32.40 132.70 34.67Q132.30 36.95 131.75 39.52Q131.20 42.10 130.63 44.60Q130.05 47.10 129.65 49.20Q129.25 51.30 129.25 52.65Q129.25 54.05 129.65 54.58Q130.05 55.10 130.55 55.10Q131.10 55.10 131.60 54.67Q132.10 54.25 132.25 53.90L132.65 54Q132.60 55.80 131.63 57.20Q130.65 58.60 129.18 59.40Q127.70 60.20 126.10 60.20ZM146.60 60.35Q142.85 60.35 140.40 58.85Q137.95 57.35 136.78 54.88Q135.60 52.40 135.60 49.60Q135.60 46.95 136.58 44.30Q137.55 41.65 139.43 39.47Q141.30 37.30 144.00 35.97Q146.70 34.65 150.20 34.65Q153.95 34.65 156.38 36.17Q158.80 37.70 159.98 40.20Q161.15 42.70 161.15 45.55Q161.15 48.15 160.20 50.77Q159.25 53.40 157.38 55.58Q155.50 57.75 152.80 59.05Q150.10 60.35 146.60 60.35M147.95 56.10Q149.30 56.10 150.20 54.70Q151.10 53.30 151.55 51.13Q152.00 48.95 152.00 46.70Q152.00 44.70 151.63 42.92Q151.25 41.15 150.50 40.02Q149.75 38.90 148.55 38.90Q147.25 38.90 146.33 40.30Q145.40 41.70 144.95 43.85Q144.50 46 144.50 48.30Q144.50 50.30 144.88 52.08Q145.25 53.85 146.00 54.98Q146.75 56.10 147.95 56.10ZM171.10 60.20Q168.50 60.20 166.88 58.67Q165.25 57.15 165.25 53.95Q165.25 52.35 165.63 50.58Q166 48.80 166.48 47.08Q166.95 45.35 167.30 43.95Q167.65 42.55 167.65 41.70Q167.65 40.85 167.30 40.47Q166.95 40.10 166.45 40.10Q165.95 40.10 165.45 40.42Q164.95 40.75 164.60 41.40L164.20 41.25Q164.30 39.20 165.35 37.75Q166.40 36.30 167.98 35.55Q169.55 34.80 171.15 34.80Q172.45 34.80 173.65 35.33Q174.85 35.85 175.58 36.92Q176.30 38 176.25 39.65Q176.20 40.75 175.85 42.35Q175.50 43.95 175.03 45.77Q174.55 47.60 174.20 49.30Q173.85 51 173.85 52.30Q173.85 53.40 174.18 54.05Q174.50 54.70 175.30 54.70Q176.15 54.70 177.55 53.80Q178.95 52.90 180.35 51.20Q180.05 48.40 180.05 46.25Q180.05 40.75 181.68 38.30Q183.30 35.85 185.75 35.85Q187.55 35.85 188.20 37.05Q188.85 38.25 188.85 40.25Q188.85 43.20 187.85 45.80Q186.85 48.40 185.50 49.95Q185.60 52.20 186.43 53.45Q187.25 54.70 188.40 54.70Q189.55 54.70 190.78 53.40Q192 52.10 192.90 49.40Q193.80 46.70 193.95 42.55Q194 39.20 193.50 37.65L193.50 37.40Q194.20 36.25 195.73 35.42Q197.25 34.60 198.80 34.60Q199.90 34.60 200.83 35.22Q201.75 35.85 202.30 37.52Q202.85 39.20 202.70 42.35Q202.55 46.75 201.25 50.08Q199.95 53.40 197.93 55.65Q195.90 57.90 193.55 59.05Q191.20 60.20 188.90 60.20Q186.30 60.20 184.15 58.77Q182 57.35 180.90 54.75Q178.65 57.10 176.28 58.65Q173.90 60.20 171.10 60.20ZM215.75 60.35Q212.10 60.35 209.70 58.88Q207.30 57.40 206.10 54.98Q204.90 52.55 204.90 49.75Q204.90 47.10 205.93 44.42Q206.95 41.75 208.93 39.55Q210.90 37.35 213.72 36Q216.55 34.65 220.10 34.65Q224.50 34.65 226.53 36.63Q228.55 38.60 228.55 41.40Q228.55 43.80 227.28 45.83Q226 47.85 223.90 49.08Q221.80 50.30 219.30 50.30Q218 50.30 216.65 49.90Q215.30 49.50 214 48.65Q214.25 51.75 215.80 53.15Q217.35 54.55 219.50 54.55Q221 54.55 222.50 53.98Q224 53.40 225.28 52.48Q226.55 51.55 227.25 50.50L227.60 50.75Q227.60 53.35 226.53 55.17Q225.45 57 223.70 58.15Q221.95 59.30 219.88 59.83Q217.80 60.35 215.75 60.35M216.90 46.85Q218.50 46.85 219.50 45.92Q220.50 45 221 43.75Q221.50 42.50 221.50 41.55Q221.50 40.40 220.85 39.63Q220.20 38.85 219.05 38.85Q218.15 38.85 217.07 39.50Q216 40.15 215.15 41.72Q214.30 43.30 214.05 46.10Q215.65 46.85 216.90 46.85ZM236.90 60.20Q235.10 60.20 233.70 58.73Q232.30 57.25 232.30 54.55Q232.30 53.25 232.60 51.60Q232.90 49.95 233.30 48.23Q233.70 46.50 234 44.98Q234.30 43.45 234.30 42.45Q234.30 41.40 233.93 40.77Q233.55 40.15 232.95 40.15Q232 40.15 231 41.45L230.70 41.25Q230.65 40.45 231.05 39.35Q231.45 38.25 232.30 37.22Q233.15 36.20 234.48 35.50Q235.80 34.80 237.60 34.80Q240.25 34.80 241.45 36.33Q242.65 37.85 242.65 40Q242.65 40.35 242.63 40.72Q242.60 41.10 242.55 41.45Q244.35 38.20 246.33 36.47Q248.30 34.75 250 34.75Q251.60 34.75 252.35 36Q253.10 37.25 253.10 39Q253.10 40.60 252.48 42.25Q251.85 43.90 250.63 44.98Q249.40 46.05 247.65 46L247.45 45.90Q247.40 44.60 246.60 43.85Q245.80 43.10 244.80 43.10Q243.45 43.10 242.28 44.45Q241.10 45.80 241.10 48.35Q241.10 49.90 241.45 51.70Q241.80 53.50 241.80 54.75Q241.80 56.25 241.10 57.50Q240.40 58.75 239.30 59.48Q238.20 60.20 236.90 60.20ZM275.95 60.30Q272.80 60.30 270.53 59.02Q268.25 57.75 266.78 55.52Q265.30 53.30 264.63 50.48Q263.95 47.65 264.05 44.60Q264.25 39.15 266.05 35.20Q267.85 31.25 270.60 28.70Q273.35 26.15 276.53 24.92Q279.70 23.70 282.65 23.70Q285.15 23.70 287.18 24.52Q289.20 25.35 290.40 26.92Q291.60 28.50 291.60 30.75Q291.60 32.50 290.58 34.13Q289.55 35.75 287.48 36.77Q285.40 37.80 282.15 37.80Q282.70 36.20 282.95 35Q283.20 33.80 283.20 32.95Q283.20 31.20 282.40 30.57Q281.60 29.95 280.40 29.95Q278.95 29.95 277.65 31Q276.35 32.05 275.33 33.83Q274.30 35.60 273.70 37.75Q273.10 39.90 273 42.10Q272.80 47.65 274.60 50.50Q276.40 53.35 279.25 53.35Q281.45 53.35 284.13 51.55Q286.80 49.75 289.40 46.10L290.05 46.40Q289.40 50.90 287.20 54Q285 57.10 282.03 58.70Q279.05 60.30 275.95 60.30ZM304.45 60.35Q300.70 60.35 298.25 58.85Q295.80 57.35 294.63 54.88Q293.45 52.40 293.45 49.60Q293.45 46.95 294.43 44.30Q295.40 41.65 297.28 39.47Q299.15 37.30 301.85 35.97Q304.55 34.65 308.05 34.65Q311.80 34.65 314.23 36.17Q316.65 37.70 317.82 40.20Q319 42.70 319 45.55Q319 48.15 318.05 50.77Q317.10 53.40 315.23 55.58Q313.35 57.75 310.65 59.05Q307.95 60.35 304.45 60.35M305.80 56.10Q307.15 56.10 308.05 54.70Q308.95 53.30 309.40 51.13Q309.85 48.95 309.85 46.70Q309.85 44.70 309.48 42.92Q309.10 41.15 308.35 40.02Q307.60 38.90 306.40 38.90Q305.10 38.90 304.18 40.30Q303.25 41.70 302.80 43.85Q302.35 46 302.35 48.30Q302.35 50.30 302.73 52.08Q303.10 53.85 303.85 54.98Q304.60 56.10 305.80 56.10ZM327.60 60.20Q326.25 60.20 324.98 59.52Q323.70 58.85 322.90 57.35Q322.10 55.85 322.10 53.50Q322.10 51.40 322.68 48.58Q323.25 45.75 323.98 42.70Q324.70 39.65 325.25 36.75Q325.80 33.85 325.75 31.60Q325.75 29.45 325.25 28.55L325.20 28.40Q325.75 26.80 327.15 25.90Q328.55 25 330.10 25Q331.85 25 333.23 26.32Q334.60 27.65 334.60 30.75Q334.60 32.40 334.20 34.67Q333.80 36.95 333.25 39.52Q332.70 42.10 332.13 44.60Q331.55 47.10 331.15 49.20Q330.75 51.30 330.75 52.65Q330.75 54.05 331.15 54.58Q331.55 55.10 332.05 55.10Q332.60 55.10 333.10 54.67Q333.60 54.25 333.75 53.90L334.15 54Q334.10 55.80 333.13 57.20Q332.15 58.60 330.68 59.40Q329.20 60.20 327.60 60.20ZM342.90 60.20Q341.55 60.20 340.28 59.52Q339.00 58.85 338.20 57.35Q337.40 55.85 337.40 53.50Q337.40 51.40 337.98 48.58Q338.55 45.75 339.28 42.70Q340.00 39.65 340.55 36.75Q341.10 33.85 341.05 31.60Q341.05 29.45 340.55 28.55L340.50 28.40Q341.05 26.80 342.45 25.90Q343.85 25 345.40 25Q347.15 25 348.53 26.32Q349.90 27.65 349.90 30.75Q349.90 32.40 349.50 34.67Q349.10 36.95 348.55 39.52Q348.00 42.10 347.43 44.60Q346.85 47.10 346.45 49.20Q346.05 51.30 346.05 52.65Q346.05 54.05 346.45 54.58Q346.85 55.10 347.35 55.10Q347.90 55.10 348.40 54.67Q348.90 54.25 349.05 53.90L349.45 54Q349.40 55.80 348.43 57.20Q347.45 58.60 345.98 59.40Q344.50 60.20 342.90 60.20ZM363.25 60.35Q359.60 60.35 357.20 58.88Q354.80 57.40 353.60 54.98Q352.40 52.55 352.40 49.75Q352.40 47.10 353.43 44.42Q354.45 41.75 356.43 39.55Q358.40 37.35 361.23 36Q364.05 34.65 367.60 34.65Q372.00 34.65 374.03 36.63Q376.05 38.60 376.05 41.40Q376.05 43.80 374.78 45.83Q373.50 47.85 371.40 49.08Q369.30 50.30 366.80 50.30Q365.50 50.30 364.15 49.90Q362.80 49.50 361.50 48.65Q361.75 51.75 363.30 53.15Q364.85 54.55 367.00 54.55Q368.50 54.55 370.00 53.98Q371.50 53.40 372.78 52.48Q374.05 51.55 374.75 50.50L375.10 50.75Q375.10 53.35 374.03 55.17Q372.95 57 371.20 58.15Q369.45 59.30 367.38 59.83Q365.30 60.35 363.25 60.35M364.40 46.85Q366.00 46.85 367.00 45.92Q368.00 45 368.50 43.75Q369.00 42.50 369.00 41.55Q369.00 40.40 368.35 39.63Q367.70 38.85 366.55 38.85Q365.65 38.85 364.58 39.50Q363.50 40.15 362.65 41.72Q361.80 43.30 361.55 46.10Q363.15 46.85 364.40 46.85ZM388.20 60.35Q384.90 60.35 382.63 58.85Q380.35 57.35 379.20 54.92Q378.05 52.50 378.05 49.70Q378.05 47.05 379.08 44.40Q380.10 41.75 382.10 39.52Q384.10 37.30 386.98 35.97Q389.85 34.65 393.60 34.65Q397.30 34.65 399.10 36.13Q400.90 37.60 400.90 39.35Q400.90 41.20 399.05 42.75Q397.20 44.30 393.65 44.30Q393.85 43.55 393.98 42.77Q394.10 42 394.10 41.30Q394.10 40.25 393.65 39.52Q393.20 38.80 392.05 38.80Q391.00 38.80 389.83 39.75Q388.65 40.70 387.83 42.55Q387.00 44.40 387.00 47.10Q387.00 49.75 387.88 51.40Q388.75 53.05 390.15 53.77Q391.55 54.50 393.10 54.50Q395.15 54.50 397.05 53.42Q398.95 52.35 399.80 50.45L400.30 50.65Q400.30 53.25 399.13 55.08Q397.95 56.90 396.10 58.08Q394.25 59.25 392.15 59.80Q390.05 60.35 388.20 60.35ZM410.10 60.20Q408.50 60.20 407.08 59.48Q405.65 58.75 404.78 57.20Q403.90 55.65 403.90 53.25Q403.90 51.95 404.15 49.85Q404.40 47.75 404.83 45.25Q405.25 42.75 405.70 40.25Q404.70 40.30 403.78 40.45Q402.85 40.60 401.95 40.80L401.85 40.45Q402.85 39.25 403.95 38.40Q405.05 37.55 406.25 37Q406.90 33.70 407.35 31.27Q407.80 28.85 407.80 28.40Q407.80 27.55 409.13 27Q410.45 26.45 412.10 26.45Q413.55 26.45 414.83 27Q416.10 27.55 416.55 28.85Q416.25 29.15 415.70 31.07Q415.15 33 414.55 35.75Q415.50 35.80 416.50 35.85Q417.50 35.90 418.55 36Q418.65 36.30 418.70 36.65Q418.75 37 418.75 37.40Q418.75 38.15 418.53 39.02Q418.30 39.90 418.00 40.60Q416.80 40.50 415.75 40.38Q414.70 40.25 413.70 40.20Q413.30 42.35 412.98 44.50Q412.65 46.65 412.48 48.40Q412.30 50.15 412.30 51.15Q412.30 53.25 413.08 53.95Q413.85 54.65 414.95 54.65Q415.95 54.65 416.75 54.25Q417.55 53.85 417.90 53.30L418.40 53.45Q418.10 55.50 416.80 57.02Q415.50 58.55 413.70 59.38Q411.90 60.20 410.10 60.20ZM431.55 60.35Q427.80 60.35 425.35 58.85Q422.90 57.35 421.73 54.88Q420.55 52.40 420.55 49.60Q420.55 46.95 421.53 44.30Q422.50 41.65 424.38 39.47Q426.25 37.30 428.95 35.97Q431.65 34.65 435.15 34.65Q438.90 34.65 441.33 36.17Q443.75 37.70 444.93 40.20Q446.10 42.70 446.10 45.55Q446.10 48.15 445.15 50.77Q444.20 53.40 442.33 55.58Q440.45 57.75 437.75 59.05Q435.05 60.35 431.55 60.35M432.90 56.10Q434.25 56.10 435.15 54.70Q436.05 53.30 436.50 51.13Q436.95 48.95 436.95 46.70Q436.95 44.70 436.58 42.92Q436.20 41.15 435.45 40.02Q434.70 38.90 433.50 38.90Q432.20 38.90 431.28 40.30Q430.35 41.70 429.90 43.85Q429.45 46 429.45 48.30Q429.45 50.30 429.83 52.08Q430.20 53.85 430.95 54.98Q431.70 56.10 432.90 56.10ZM454.85 60.20Q453.05 60.20 451.65 58.73Q450.25 57.25 450.25 54.55Q450.25 53.25 450.55 51.60Q450.85 49.95 451.25 48.23Q451.65 46.50 451.95 44.98Q452.25 43.45 452.25 42.45Q452.25 41.40 451.88 40.77Q451.50 40.15 450.90 40.15Q449.95 40.15 448.95 41.45L448.65 41.25Q448.60 40.45 449.00 39.35Q449.40 38.25 450.25 37.22Q451.10 36.20 452.43 35.50Q453.75 34.80 455.55 34.80Q458.20 34.80 459.40 36.33Q460.60 37.85 460.60 40Q460.60 40.35 460.58 40.72Q460.55 41.10 460.50 41.45Q462.30 38.20 464.28 36.47Q466.25 34.75 467.95 34.75Q469.55 34.75 470.30 36Q471.05 37.25 471.05 39Q471.05 40.60 470.43 42.25Q469.80 43.90 468.58 44.98Q467.35 46.05 465.60 46L465.40 45.90Q465.35 44.60 464.55 43.85Q463.75 43.10 462.75 43.10Q461.40 43.10 460.23 44.45Q459.05 45.80 459.05 48.35Q459.05 49.90 459.40 51.70Q459.75 53.50 459.75 54.75Q459.75 56.25 459.05 57.50Q458.35 58.75 457.25 59.48Q456.15 60.20 454.85 60.20Z"/></g></g></g></svg>