<?xml version="1.0"?>
<svg xmlns:rdf="http://www.w3.org/1999/02/22-rdf-syntax-ns#" xmlns="http://www.w3.org/2000/svg" xmlns:cc="http://creativecommons.org/ns#" xmlns:xlink="http://www.w3.org/1999/xlink" xmlns:dc="http://purl.org/dc/elements/1.1/" xmlns:svg="http://www.w3.org/2000/svg" id="svg2" viewBox="0 0 610 610" version="1.1">
  <g id="layer4" transform="translate(5 -397.36)">
    <rect id="rect5840" stroke-linejoin="round" ry="1.5381" height="600" width="600" stroke="#4a0" y="402.36" x="0" stroke-width="10" fill="none"/>
    <path id="path2888" fill="#4a0" d="m354.24 511.51c49.121-23.108 133.58-21.301 168.96 88.666 10.235 31.811 3.3989 54.969-0.0316 70.206-0.5107 2.1148-7.5468 18.819-7.9958 22.08-0.46748 3.395 23.528 55.36 26.46 61.968 5.6746 13.579 1.389 16.001-2.8252 18.942l-146.5 76.633c-7.3779 3.8589-11.124-3.1053-13.797-9.1104l-27.938-66.827c-2.1734-3.5271-9.4816-7.1163-12.907-9.9884-42.468-21.798-68.618-32.903-145.24-70.225l-41.369 30.537c-5.3586 4.0736-28.073-60.822-4.2076-80.811l48.043 26.741 71.919 26.435 39.495-20.889-16.763-39.256c-1.02-65.81 27.13-106.23 64.71-125.1zm8.004 13.505c-42.076 24.838-45.15 46.489-53.749 84.447 0.66647 5.9888-1.057 13.356 14.238 4.4309l116.4-62.402c6.2855-3.368 13.06-1.106 19.555 13.528l36.32 81.8c7.4685-4.1277 22.128 0.11403 12.35-43.349-23.72-91.14-103.03-103.3-145.11-78.46z"/>
    <path id="path3220" stroke="#000" stroke-width=".67235px" fill="#4a0" d="m103.14 846.79c-10.974 17.523-9.4789 92.467-25.063 83.704-15.585-8.7628 7.0103-61.956 25.063-83.704z"/>
    <path id="path3220-6" stroke="#000" stroke-width=".61048px" fill="#4a0" d="m103.16 767.06c-16.159 9.2957-50.622 72.421-57.616 57.605-6.9936-14.816 34.39-48.206 57.616-57.605z"/>
    <path id="path3220-9" stroke="#000" stroke-width=".50827px" fill="#4a0" d="m114.51 685.44c-15.664 5.67-41.27 45.9-51.447 36.12-10.178-9.79 28.217-30.54 51.447-36.12z"/>
  </g>
  <metadata>
    <rdf:RDF>
      <cc:Work>
        <dc:format>image/svg+xml</dc:format>
        <dc:type rdf:resource="http://purl.org/dc/dcmitype/StillImage"/>
        <cc:license rdf:resource="http://creativecommons.org/licenses/publicdomain/"/>
        <dc:publisher>
          <cc:Agent rdf:about="http://openclipart.org/">
            <dc:title>Openclipart</dc:title>
          </cc:Agent>
        </dc:publisher>
        <dc:title>Eco green watering icon</dc:title>
        <dc:date>2012-06-10T04:33:31</dc:date>
        <dc:description>clip art, clipart, ecology, garden, green, icon, water, watering, watering-can, </dc:description>
        <dc:source>http://openclipart.org/detail/170521/eco-green-watering-icon-by-cybergedeon-170521</dc:source>
        <dc:creator>
          <cc:Agent>
            <dc:title>dominiquechappard</dc:title>
          </cc:Agent>
        </dc:creator>
        <dc:subject>
          <rdf:Bag>
            <rdf:li>clip art</rdf:li>
            <rdf:li>clipart</rdf:li>
            <rdf:li>ecology</rdf:li>
            <rdf:li>garden</rdf:li>
            <rdf:li>green</rdf:li>
            <rdf:li>icon</rdf:li>
            <rdf:li>water</rdf:li>
            <rdf:li>watering</rdf:li>
            <rdf:li>watering-can</rdf:li>
          </rdf:Bag>
        </dc:subject>
      </cc:Work>
      <cc:License rdf:about="http://creativecommons.org/licenses/publicdomain/">
        <cc:permits rdf:resource="http://creativecommons.org/ns#Reproduction"/>
        <cc:permits rdf:resource="http://creativecommons.org/ns#Distribution"/>
        <cc:permits rdf:resource="http://creativecommons.org/ns#DerivativeWorks"/>
      </cc:License>
    </rdf:RDF>
  </metadata>
</svg>
